<svg width="49" height="15" viewBox="0 0 49 15" fill="none" xmlns="http://www.w3.org/2000/svg">
<path opacity="0.7" d="M4.81676 14.2173C3.80682 14.2131 2.94389 13.9467 2.22798 13.4183C1.51207 12.8899 0.964489 12.1207 0.585227 11.1108C0.205966 10.1009 0.0163353 8.88423 0.0163353 7.46094C0.0163353 6.0419 0.205966 4.82955 0.585227 3.82386C0.96875 2.81818 1.51847 2.05114 2.23438 1.52273C2.95455 0.994318 3.81534 0.730113 4.81676 0.730113C5.81818 0.730113 6.67685 0.996448 7.39276 1.52912C8.10867 2.05753 8.65625 2.82457 9.03551 3.83026C9.41903 4.83168 9.6108 6.0419 9.6108 7.46094C9.6108 8.88849 9.42116 10.1072 9.0419 11.1172C8.66264 12.1229 8.11506 12.892 7.39915 13.4247C6.68324 13.9531 5.82244 14.2173 4.81676 14.2173ZM4.81676 12.5107C5.70313 12.5107 6.3956 12.0781 6.89418 11.2131C7.39702 10.348 7.64844 9.0973 7.64844 7.46094C7.64844 6.37429 7.53338 5.45597 7.30327 4.70597C7.07741 3.9517 6.75142 3.38068 6.32528 2.9929C5.90341 2.60085 5.40057 2.40483 4.81676 2.40483C3.93466 2.40483 3.24219 2.83949 2.73935 3.70881C2.23651 4.57812 1.98295 5.82884 1.97869 7.46094C1.97869 8.55185 2.09162 9.47443 2.31747 10.2287C2.54759 10.9787 2.87358 11.5476 3.29545 11.9354C3.71733 12.3189 4.22443 12.5107 4.81676 12.5107ZM16.4359 14.2173C15.426 14.2131 14.563 13.9467 13.8471 13.4183C13.1312 12.8899 12.5836 12.1207 12.2044 11.1108C11.8251 10.1009 11.6355 8.88423 11.6355 7.46094C11.6355 6.0419 11.8251 4.82955 12.2044 3.82386C12.5879 2.81818 13.1376 2.05114 13.8535 1.52273C14.5737 0.994318 15.4345 0.730113 16.4359 0.730113C17.4373 0.730113 18.296 0.996448 19.0119 1.52912C19.7278 2.05753 20.2754 2.82457 20.6547 3.83026C21.0382 4.83168 21.2299 6.0419 21.2299 7.46094C21.2299 8.88849 21.0403 10.1072 20.661 11.1172C20.2818 12.1229 19.7342 12.892 19.0183 13.4247C18.3024 13.9531 17.4416 14.2173 16.4359 14.2173ZM16.4359 12.5107C17.3223 12.5107 18.0147 12.0781 18.5133 11.2131C19.0162 10.348 19.2676 9.0973 19.2676 7.46094C19.2676 6.37429 19.1525 5.45597 18.9224 4.70597C18.6966 3.9517 18.3706 3.38068 17.9444 2.9929C17.5226 2.60085 17.0197 2.40483 16.4359 2.40483C15.5538 2.40483 14.8613 2.83949 14.3585 3.70881C13.8556 4.57812 13.6021 5.82884 13.5978 7.46094C13.5978 8.55185 13.7108 9.47443 13.9366 10.2287C14.1667 10.9787 14.4927 11.5476 14.9146 11.9354C15.3365 12.3189 15.8436 12.5107 16.4359 12.5107ZM24.7823 12.3764C24.4329 12.3764 24.1325 12.2528 23.881 12.0057C23.6296 11.7543 23.5039 11.4517 23.5039 11.098C23.5039 10.7486 23.6296 10.4503 23.881 10.2031C24.1325 9.9517 24.4329 9.82599 24.7823 9.82599C25.1317 9.82599 25.4322 9.9517 25.6836 10.2031C25.935 10.4503 26.0607 10.7486 26.0607 11.098C26.0607 11.3324 26.0011 11.5476 25.8817 11.7436C25.7667 11.9354 25.6133 12.0888 25.4215 12.2038C25.2298 12.3189 25.0167 12.3764 24.7823 12.3764ZM24.7823 5.81818C24.4329 5.81818 24.1325 5.6946 23.881 5.44744C23.6296 5.19602 23.5039 4.89347 23.5039 4.53977C23.5039 4.19034 23.6296 3.89205 23.881 3.64489C24.1325 3.39347 24.4329 3.26776 24.7823 3.26776C25.1317 3.26776 25.4322 3.39347 25.6836 3.64489C25.935 3.89205 26.0607 4.19034 26.0607 4.53977C26.0607 4.77415 26.0011 4.98935 25.8817 5.18537C25.7667 5.37713 25.6133 5.53054 25.4215 5.6456C25.2298 5.76065 25.0167 5.81818 24.7823 5.81818ZM33.1527 14.2173C32.1428 14.2131 31.2798 13.9467 30.5639 13.4183C29.848 12.8899 29.3004 12.1207 28.9212 11.1108C28.5419 10.1009 28.3523 8.88423 28.3523 7.46094C28.3523 6.0419 28.5419 4.82955 28.9212 3.82386C29.3047 2.81818 29.8544 2.05114 30.5703 1.52273C31.2905 0.994318 32.1513 0.730113 33.1527 0.730113C34.1541 0.730113 35.0128 0.996448 35.7287 1.52912C36.4446 2.05753 36.9922 2.82457 37.3714 3.83026C37.755 4.83168 37.9467 6.0419 37.9467 7.46094C37.9467 8.88849 37.7571 10.1072 37.3778 11.1172C36.9986 12.1229 36.451 12.892 35.7351 13.4247C35.0192 13.9531 34.1584 14.2173 33.1527 14.2173ZM33.1527 12.5107C34.0391 12.5107 34.7315 12.0781 35.2301 11.2131C35.733 10.348 35.9844 9.0973 35.9844 7.46094C35.9844 6.37429 35.8693 5.45597 35.6392 4.70597C35.4134 3.9517 35.0874 3.38068 34.6612 2.9929C34.2393 2.60085 33.7365 2.40483 33.1527 2.40483C32.2706 2.40483 31.5781 2.83949 31.0753 3.70881C30.5724 4.57812 30.3189 5.82884 30.3146 7.46094C30.3146 8.55185 30.4276 9.47443 30.6534 10.2287C30.8835 10.9787 31.2095 11.5476 31.6314 11.9354C32.0533 12.3189 32.5604 12.5107 33.1527 12.5107ZM40.2143 14V12.5682L44.644 7.97869C45.117 7.48011 45.5069 7.04332 45.8137 6.66832C46.1248 6.28906 46.3571 5.92898 46.5105 5.58807C46.6639 5.24716 46.7406 4.88494 46.7406 4.50142C46.7406 4.06676 46.6383 3.69176 46.4338 3.37642C46.2292 3.05682 45.9501 2.81179 45.5964 2.64134C45.2427 2.46662 44.8443 2.37926 44.4011 2.37926C43.9324 2.37926 43.5233 2.47514 43.1738 2.6669C42.8244 2.85866 42.5559 3.12926 42.3684 3.47869C42.1809 3.82812 42.0872 4.23722 42.0872 4.70597H40.2015C40.2015 3.90909 40.3848 3.21236 40.7512 2.61577C41.1177 2.01918 41.6206 1.55682 42.2598 1.22869C42.899 0.896306 43.6255 0.730113 44.4395 0.730113C45.2619 0.730113 45.9863 0.894176 46.6127 1.2223C47.2434 1.54616 47.7356 1.98935 48.0893 2.55185C48.443 3.11009 48.6199 3.74077 48.6199 4.44389C48.6199 4.92969 48.5282 5.40483 48.345 5.86932C48.166 6.33381 47.8528 6.85156 47.4054 7.42259C46.9579 7.98935 46.3358 8.67756 45.5389 9.48722L42.9373 12.2102V12.3061H48.8308V14H40.2143Z" fill="white"/>
</svg>
