<svg width="32" height="32" viewBox="0 0 32 32" fill="none" xmlns="http://www.w3.org/2000/svg">
<g opacity="0.7">
<path d="M26.6665 26.6667V27.6667H27.6665V26.6667H26.6665ZM20.7069 19.293C20.3164 18.9025 19.6833 18.9025 19.2927 19.293C18.9022 19.6835 18.9022 20.3167 19.2927 20.7072L20.7069 19.293ZM25.6665 18.6667V26.6667H27.6665V18.6667H25.6665ZM26.6665 25.6667H18.6665V27.6667H26.6665V25.6667ZM27.3736 25.9596L20.7069 19.293L19.2927 20.7072L25.9594 27.3739L27.3736 25.9596Z" fill="white"/>
<path d="M5.3335 26.6667H4.3335V27.6667H5.3335V26.6667ZM12.7073 20.7072C13.0978 20.3167 13.0978 19.6835 12.7073 19.293C12.3167 18.9025 11.6836 18.9025 11.2931 19.293L12.7073 20.7072ZM4.3335 18.6667V26.6667H6.3335V18.6667H4.3335ZM5.3335 27.6667H13.3335V25.6667H5.3335V27.6667ZM6.0406 27.3739L12.7073 20.7072L11.2931 19.293L4.62639 25.9596L6.0406 27.3739Z" fill="white"/>
<path d="M26.6665 5.33325H27.6665V4.33325H26.6665V5.33325ZM19.2927 11.2928C18.9022 11.6833 18.9022 12.3165 19.2927 12.707C19.6833 13.0975 20.3164 13.0975 20.7069 12.707L19.2927 11.2928ZM27.6665 13.3333V5.33325H25.6665V13.3333H27.6665ZM26.6665 4.33325H18.6665V6.33325H26.6665V4.33325ZM25.9594 4.62615L19.2927 11.2928L20.7069 12.707L27.3736 6.04036L25.9594 4.62615Z" fill="white"/>
<path d="M5.3335 5.33325V4.33325H4.3335V5.33325H5.3335ZM11.2931 12.707C11.6836 13.0975 12.3167 13.0975 12.7073 12.707C13.0978 12.3165 13.0978 11.6833 12.7073 11.2928L11.2931 12.707ZM6.3335 13.3333V5.33325H4.3335V13.3333H6.3335ZM5.3335 6.33325H13.3335V4.33325H5.3335V6.33325ZM4.62639 6.04036L11.2931 12.707L12.7073 11.2928L6.0406 4.62615L4.62639 6.04036Z" fill="white"/>
</g>
</svg>
